<?xml version="1.0" standalone="no"?>
<!DOCTYPE svg PUBLIC "-//W3C//DTD SVG 20010904//EN"
 "http://www.w3.org/TR/2001/REC-SVG-20010904/DTD/svg10.dtd">
<svg version="1.0" xmlns="http://www.w3.org/2000/svg"
 width="1280.000000pt" height="1280.000000pt" viewBox="0 0 1280.000000 1280.000000"
 preserveAspectRatio="xMidYMid meet">
<metadata>
Created by potrace 1.14, written by Peter Selinger 2001-2017
</metadata>
<g transform="translate(0.000000,1280.000000) scale(0.100000,-0.100000)"
fill="#000000" stroke="none">
<path d="M5013 11684 c4 -7 0 -15 -9 -18 -8 -3 -13 -2 -10 2 3 5 -2 9 -10 9
-8 0 -13 -5 -11 -12 3 -6 -5 -12 -17 -13 -11 0 -29 -11 -38 -23 -10 -12 -18
-18 -18 -13 0 4 -7 -1 -16 -12 -8 -10 -13 -12 -9 -4 4 8 -1 6 -10 -5 -9 -11
-21 -19 -26 -17 -6 1 -6 -5 0 -17 8 -15 7 -20 -5 -25 -13 -5 -14 -9 -5 -20 9
-11 9 -15 -1 -19 -8 -4 -7 -6 5 -6 10 -1 17 -9 17 -22 0 -11 4 -17 10 -14 6 3
7 -1 3 -10 -3 -9 -9 -12 -12 -7 -8 12 -41 11 -41 -1 0 -5 8 -6 18 -3 9 4 4 -5
-13 -19 -16 -15 -25 -24 -18 -21 6 4 14 2 18 -4 3 -5 1 -10 -6 -10 -7 0 -9 -3
-6 -7 4 -3 -1 -12 -11 -20 -13 -10 -14 -12 -1 -8 12 5 15 -1 15 -27 -1 -22 3
-32 12 -30 8 1 11 -2 7 -8 -3 -5 0 -10 7 -10 10 0 10 -2 -1 -9 -8 -5 -21 -7
-29 -3 -10 3 -13 1 -8 -6 3 -6 1 -14 -5 -18 -8 -4 -9 -3 -5 4 4 7 2 12 -4 12
-6 0 -8 5 -4 12 4 7 3 8 -4 4 -6 -4 -8 -14 -5 -23 4 -11 2 -14 -8 -11 -8 3
-20 -2 -27 -11 -10 -12 -12 -13 -6 -1 7 12 5 13 -8 3 -8 -7 -18 -10 -21 -6 -4
3 -7 2 -7 -4 0 -6 -7 -14 -16 -17 -10 -4 -13 -2 -8 7 5 8 2 7 -9 -2 -14 -11
-17 -11 -17 0 0 11 -2 11 -10 -1 -5 -8 -10 -11 -10 -6 0 5 -8 2 -17 -5 -10 -8
-14 -9 -10 -2 4 6 3 14 -3 18 -5 3 -10 -2 -11 -12 0 -16 -1 -16 -8 2 -8 19 -8
19 -20 0 -12 -19 -12 -19 -7 -1 6 17 5 17 -11 5 -11 -9 -14 -10 -9 -1 4 7 1
12 -9 12 -9 0 -14 -4 -11 -8 3 -5 -5 -8 -17 -7 -12 2 -21 8 -19 15 1 6 -3 10
-10 7 -7 -2 -12 -10 -10 -16 1 -7 -2 -10 -7 -6 -6 3 -7 13 -4 23 6 15 5 15
-10 3 -11 -9 -17 -10 -17 -2 0 6 -4 11 -10 11 -5 0 -6 -7 -3 -17 4 -11 3 -14
-6 -9 -7 4 -23 9 -36 10 -18 2 -22 -1 -17 -13 4 -13 2 -13 -15 2 -19 16 -22
16 -36 3 -10 -11 -17 -12 -19 -5 -3 8 -9 6 -20 -4 -8 -9 -18 -14 -21 -10 -3 3
-20 -5 -36 -17 -17 -11 -35 -18 -41 -15 -5 3 -10 2 -10 -4 0 -6 -9 -15 -20
-21 -17 -9 -19 -8 -14 7 3 10 -3 6 -13 -10 -11 -15 -23 -24 -26 -20 -4 3 -7 0
-7 -7 0 -7 -3 -10 -7 -7 -3 4 -15 0 -25 -10 -10 -9 -18 -13 -18 -9 0 5 -19
-13 -42 -40 -24 -26 -58 -62 -75 -81 -18 -18 -33 -39 -33 -45 0 -6 -2 -9 -5
-6 -3 3 -20 -8 -36 -23 -17 -16 -37 -29 -45 -29 -8 0 -14 -5 -14 -11 0 -5 -4
-7 -10 -4 -5 3 -10 1 -10 -4 0 -6 -9 -11 -20 -11 -11 0 -20 -5 -20 -12 0 -6
-3 -8 -7 -5 -3 4 -12 -1 -20 -11 -8 -9 -12 -11 -8 -4 9 18 -2 15 -25 -8 -12
-12 -25 -18 -30 -15 -5 3 -12 0 -16 -6 -5 -8 -3 -9 6 -4 9 6 11 4 6 -4 -5 -7
-14 -10 -22 -7 -7 3 -16 0 -20 -6 -4 -7 -3 -8 4 -4 24 15 11 -13 -17 -37 -17
-14 -28 -27 -25 -30 3 -3 -4 -8 -15 -12 -12 -3 -21 -11 -21 -16 0 -8 -24 -40
-56 -73 -5 -6 -19 -26 -29 -43 -11 -18 -23 -33 -28 -33 -4 0 -5 -4 -2 -10 3
-5 1 -10 -5 -10 -7 0 -9 -7 -6 -16 3 -8 2 -12 -4 -9 -6 3 -10 0 -10 -8 0 -8
-7 -17 -15 -21 -8 -3 -14 -9 -14 -13 4 -17 -14 -43 -25 -36 -6 4 -5 0 2 -9 11
-14 10 -18 -10 -29 -13 -7 -18 -14 -11 -16 9 -3 6 -11 -7 -26 -15 -16 -17 -23
-8 -29 10 -6 10 -8 -1 -8 -7 0 -11 -6 -8 -14 4 -9 1 -13 -6 -11 -7 3 -20 -11
-30 -31 -9 -19 -13 -33 -9 -30 5 3 9 -1 9 -8 0 -8 -7 -12 -16 -9 -9 2 -1 -4
18 -15 19 -11 29 -21 23 -23 -6 -2 -13 -13 -16 -24 -9 -42 -19 -65 -28 -65 -5
0 -6 -5 -3 -10 4 -6 11 -8 16 -5 5 4 9 1 9 -4 0 -6 -6 -11 -13 -11 -8 0 -13
-14 -14 -36 0 -20 -6 -40 -13 -44 -9 -5 -9 -9 -1 -14 6 -4 9 -12 6 -17 -10
-15 2 -10 16 8 10 11 10 14 2 9 -7 -4 -13 -2 -13 3 0 6 4 11 9 11 15 0 22 32
10 46 -14 17 2 18 21 2 12 -11 12 -10 2 3 -9 13 -8 20 9 38 11 12 24 19 29 16
4 -3 10 0 12 7 3 7 7 2 10 -10 4 -12 2 -20 -3 -17 -4 3 -11 -7 -14 -22 -4 -15
-10 -36 -16 -45 -7 -14 -5 -18 8 -19 15 0 15 -2 3 -7 -9 -4 -15 -14 -15 -22 0
-8 -6 -21 -15 -28 -13 -12 -13 -12 0 -6 13 7 13 5 2 -8 -10 -13 -10 -17 0 -21
11 -4 10 -6 0 -6 -7 -1 -10 -5 -7 -11 3 -5 2 -10 -3 -10 -6 0 -13 -7 -16 -16
-4 -10 -2 -13 7 -8 8 5 7 2 -2 -9 -11 -14 -11 -17 0 -17 8 0 5 -6 -7 -15 -11
-8 -14 -15 -6 -15 6 0 12 -5 12 -11 0 -5 -5 -7 -12 -3 -6 4 -8 3 -5 -3 7 -11
-14 -73 -25 -73 -4 0 -5 -9 -3 -19 2 -11 -3 -22 -11 -25 -8 -3 -14 -16 -14
-29 0 -13 -6 -29 -12 -36 -10 -11 -10 -13 0 -7 6 4 12 2 12 -3 0 -6 -4 -11
-10 -11 -5 0 -10 -8 -10 -18 0 -10 -5 -23 -12 -30 -7 -7 -8 -12 -4 -12 5 0 3
-7 -4 -15 -7 -8 -10 -22 -6 -30 3 -9 2 -13 -3 -10 -8 4 -17 -12 -26 -45 -1 -3
-5 -13 -9 -22 -5 -10 -5 -25 -2 -34 3 -8 2 -12 -4 -9 -6 3 -11 -4 -12 -17 -2
-41 -3 -45 -14 -59 -6 -8 -10 -24 -9 -36 1 -12 -2 -20 -7 -17 -4 3 -8 2 -9 -3
-3 -38 -9 -66 -16 -76 -5 -7 -8 -23 -7 -37 1 -14 -3 -28 -10 -32 -7 -5 -7 -8
3 -8 10 0 11 -3 2 -14 -16 -19 -22 -54 -11 -61 5 -3 7 3 5 14 -2 11 5 31 15
43 12 16 15 28 9 39 -10 20 16 35 27 17 4 -7 3 -8 -4 -4 -7 4 -12 1 -12 -8 0
-9 6 -16 13 -16 8 0 8 -3 -2 -9 -11 -7 -10 -10 5 -14 18 -4 18 -5 0 -6 -16 -1
-16 -3 5 -20 l24 -20 -25 5 c-15 4 -20 2 -14 -3 15 -10 14 -135 0 -146 -6 -5
0 -6 14 -2 21 5 23 4 10 -7 -16 -14 -23 -61 -7 -51 6 4 7 -5 3 -21 -5 -20 -3
-26 5 -21 6 4 9 18 6 31 -2 12 0 29 5 36 7 10 8 8 4 -4 -6 -21 -2 -22 26 -7
15 8 19 8 13 0 -4 -7 -2 -18 5 -26 8 -10 8 -15 -1 -20 -8 -6 -7 -10 2 -17 11
-8 11 -9 -1 -5 -8 2 -24 0 -35 -4 -18 -8 -17 -8 5 -6 22 2 25 -2 24 -30 0 -17
4 -29 9 -26 5 3 7 0 5 -8 -3 -8 -11 -13 -17 -11 -9 2 -9 -3 -2 -17 6 -10 7
-21 4 -25 -12 -12 13 -6 27 7 8 6 6 2 -3 -10 -18 -20 -18 -22 0 -32 11 -6 13
-11 5 -11 -8 0 -10 -5 -6 -12 5 -7 2 -9 -8 -6 -9 4 -15 0 -15 -8 0 -9 6 -13
14 -10 8 3 11 1 8 -5 -4 -5 -1 -17 7 -26 9 -12 9 -15 1 -9 -7 4 -13 2 -13 -3
0 -6 5 -11 10 -11 6 0 10 -4 10 -10 0 -5 -6 -7 -14 -4 -8 3 -17 0 -22 -7 -5
-9 -2 -10 9 -6 10 4 20 0 26 -11 8 -12 10 -13 11 -3 0 8 3 11 6 8 4 -4 1 -13
-6 -22 -10 -12 -10 -15 4 -15 9 0 16 -5 16 -11 0 -5 -6 -7 -12 -3 -8 5 -7 1 2
-10 16 -21 23 -49 9 -40 -5 3 -6 10 -3 16 4 7 2 8 -4 4 -9 -5 -9 -13 -2 -27 8
-14 7 -19 -2 -19 -9 0 -9 -3 2 -10 13 -9 13 -10 0 -10 -13 0 -13 -1 0 -10 14
-9 7 -14 -13 -11 -5 1 -6 -3 -3 -8 7 -11 32 -9 43 4 4 4 2 5 -4 1 -9 -5 -11
-2 -6 9 4 12 8 13 13 5 4 -7 14 -17 21 -22 11 -8 10 -9 -3 -4 -16 5 -23 -4
-19 -26 2 -12 -17 -10 -22 2 -3 6 -4 5 -3 -2 3 -16 32 -18 29 -2 -1 6 4 11 12
11 8 0 12 -4 9 -8 -2 -4 -1 -9 3 -12 5 -2 3 -3 -4 -1 -9 2 -19 -16 -22 -44 -1
-4 8 -7 18 -7 11 0 23 -4 28 -9 4 -5 3 -6 -4 -3 -6 4 -18 1 -26 -7 -8 -8 -16
-14 -19 -13 -2 1 5 -6 15 -15 17 -16 18 -18 2 -18 -16 0 -16 -2 -1 -25 9 -13
16 -28 16 -32 0 -4 -5 -1 -10 7 -5 8 -10 10 -10 4 0 -6 3 -14 7 -18 11 -11 12
-36 1 -36 -6 0 -8 -6 -5 -14 3 -8 -1 -17 -9 -20 -15 -6 -15 -31 0 -55 6 -9 5
-12 -2 -7 -6 3 -14 1 -18 -5 -4 -8 -3 -9 4 -5 7 4 12 2 12 -5 0 -8 7 -6 20 6
19 17 19 16 14 -10 -5 -26 -4 -27 13 -14 16 13 17 12 4 -3 -7 -10 -19 -18 -26
-18 -6 0 -12 -7 -12 -15 0 -11 4 -12 14 -3 11 9 12 7 7 -7 -5 -13 -4 -16 5
-10 10 6 11 3 2 -14 -9 -16 -9 -21 1 -21 7 0 5 -5 -5 -12 -35 -27 -42 -90 -13
-110 7 -6 6 -11 -4 -18 -13 -9 -12 -10 4 -8 12 2 20 -4 22 -16 1 -10 9 -23 16
-27 9 -6 10 -9 1 -9 -7 0 -17 9 -23 20 -6 11 -16 20 -23 20 -9 0 -9 -2 0 -8 7
-4 13 -28 13 -52 2 -76 5 -100 12 -100 3 0 5 -8 3 -17 -2 -10 -4 -18 -5 -18
-1 0 -4 -11 -6 -25 -2 -13 -10 -28 -17 -32 -6 -4 -8 -8 -4 -8 4 0 -1 -10 -13
-22 -11 -12 -20 -28 -20 -35 0 -7 -3 -13 -8 -13 -9 0 -52 -92 -52 -112 0 -8
-3 -18 -7 -22 -4 -3 -8 -19 -9 -34 -1 -15 -4 -52 -8 -82 -4 -30 -9 -77 -12
-105 -2 -27 -7 -70 -10 -95 -19 -168 -26 -430 -10 -449 9 -12 8 -13 -3 -6 -10
6 -12 4 -6 -5 4 -7 9 -25 10 -40 7 -83 58 -261 96 -332 5 -10 9 -25 9 -33 0
-8 4 -15 9 -15 5 0 13 -10 17 -22 5 -20 54 -87 89 -124 9 -10 43 -49 120 -139
14 -16 35 -43 46 -60 12 -16 42 -47 68 -68 104 -84 111 -94 112 -160 0 -9 4
-15 8 -12 5 2 9 -1 8 -8 -1 -34 4 -48 15 -41 8 5 9 2 5 -9 -3 -10 -2 -17 2
-17 5 0 7 -9 4 -20 -3 -12 0 -20 6 -20 7 0 9 6 5 13 -5 9 -4 9 6 0 15 -14 3
-36 -15 -29 -11 4 -11 -3 1 -37 8 -22 12 -47 9 -55 -2 -7 0 -10 5 -7 13 8 13
-8 -1 -22 -8 -8 -7 -13 2 -18 8 -6 10 -4 4 5 -5 9 -4 11 4 6 8 -5 9 -12 2 -20
-12 -14 -8 -53 8 -84 14 -27 17 -27 17 -3 0 11 -3 18 -6 16 -4 -2 -7 9 -7 25
0 16 4 27 8 25 4 -3 5 3 2 14 -3 10 0 22 6 25 10 7 15 -8 14 -42 -1 -6 4 -12
11 -12 6 0 4 -5 -4 -10 -13 -9 -13 -10 0 -11 8 -1 19 -1 23 0 5 1 5 -4 1 -10
-3 -6 0 -15 7 -20 12 -8 11 -11 -3 -20 -10 -5 -18 -15 -18 -22 0 -7 4 -6 10 3
5 8 10 10 10 4 0 -6 -7 -17 -15 -24 -12 -10 -15 -10 -15 0 0 8 -3 10 -7 7 -3
-4 2 -16 12 -27 16 -18 16 -20 1 -26 -14 -5 -14 -9 -4 -22 11 -13 11 -15 -2
-8 -9 4 -8 1 3 -7 9 -8 17 -19 17 -26 0 -6 5 -11 10 -11 6 0 15 -11 22 -25 6
-13 14 -23 17 -20 4 2 13 -6 21 -18 12 -20 12 -21 -4 -8 -14 12 -16 12 -10 -3
3 -9 10 -16 14 -16 11 0 20 -39 10 -45 -4 -2 -6 -16 -4 -31 2 -18 -2 -24 -11
-20 -10 4 -11 -2 -5 -24 6 -22 5 -27 -5 -24 -15 6 -26 -28 -14 -47 4 -8 1 -18
-9 -26 -16 -12 -16 -13 1 -7 11 4 17 1 17 -7 0 -12 2 -12 9 0 7 11 10 9 16 -8
3 -12 10 -19 14 -17 4 3 8 -12 9 -32 3 -60 10 -99 21 -120 6 -11 7 -22 4 -26
-3 -3 6 -6 22 -6 16 0 25 -3 22 -6 -3 -4 -2 -15 3 -25 7 -11 7 -20 0 -24 -5
-3 -6 -13 -3 -22 5 -12 3 -14 -8 -9 -8 4 -5 0 5 -8 15 -12 16 -16 5 -16 -8 0
-10 -3 -4 -8 13 -9 13 -14 22 -114 8 -98 7 -171 -1 -418 -9 -254 -7 -244 -54
-289 -22 -22 -38 -41 -36 -43 2 -3 -18 -28 -45 -56 -27 -29 -48 -52 -45 -52 2
0 -10 -13 -26 -29 -17 -15 -30 -34 -30 -40 0 -7 -4 -9 -10 -6 -5 3 -10 0 -10
-7 0 -7 -12 -24 -25 -37 -14 -12 -22 -27 -19 -32 3 -5 -2 -9 -10 -9 -8 0 -17
-9 -21 -20 -3 -11 -17 -28 -31 -39 -13 -10 -24 -22 -24 -26 0 -4 -18 -24 -39
-45 -22 -21 -37 -40 -35 -42 2 -3 -7 -11 -21 -18 -14 -7 -25 -17 -25 -21 0 -5
-12 -15 -27 -24 -16 -9 -41 -24 -58 -35 -16 -11 -40 -24 -52 -30 -13 -5 -23
-14 -23 -20 0 -5 -3 -9 -7 -8 -14 3 -63 -14 -63 -21 0 -4 -6 -8 -12 -8 -16 -1
-105 -19 -118 -23 -3 -1 -8 -2 -12 -1 -5 0 -8 -3 -8 -8 0 -5 -9 -7 -20 -4 -11
3 -20 1 -20 -5 0 -6 -9 -9 -20 -7 -11 2 -22 -1 -25 -6 -4 -5 -10 -7 -15 -4 -5
3 -11 1 -15 -5 -4 -6 -11 -8 -16 -5 -5 4 -9 1 -9 -4 0 -6 -9 -11 -21 -11 -13
0 -18 -4 -13 -12 5 -8 0 -7 -11 2 -11 9 -16 10 -11 3 4 -8 2 -13 -8 -13 -8 0
-17 -6 -19 -12 -4 -10 -8 -9 -17 2 -10 13 -11 13 -6 -2 3 -12 -2 -22 -17 -29
-20 -11 -21 -11 -8 7 7 10 2 6 -13 -9 -14 -15 -26 -24 -26 -20 0 4 -5 1 -10
-7 -5 -8 -13 -15 -17 -15 -4 0 -32 -25 -62 -55 -30 -30 -58 -54 -63 -52 -4 1
-8 -3 -8 -10 0 -6 -3 -8 -7 -5 -3 4 -12 -1 -20 -11 -8 -9 -11 -11 -7 -3 4 8
-8 3 -27 -11 -19 -14 -44 -29 -56 -33 -13 -3 -23 -11 -23 -16 0 -6 -4 -7 -10
-4 -16 10 -166 -59 -193 -89 -9 -10 -17 -16 -17 -13 0 4 -24 -18 -54 -48 -29
-30 -58 -55 -64 -55 -6 0 -15 -7 -20 -16 -5 -9 -12 -15 -16 -15 -10 2 -70 -31
-78 -43 -4 -6 -8 -8 -8 -3 0 4 -18 -4 -39 -17 -21 -14 -42 -22 -45 -19 -3 4
-6 1 -6 -6 0 -7 -5 -9 -10 -6 -6 3 -13 -1 -16 -10 -4 -10 -14 -15 -25 -12 -10
3 -17 1 -16 -3 1 -4 -2 -8 -7 -8 -5 0 -12 -4 -15 -9 -3 -5 -17 -14 -31 -21
-33 -16 -59 -33 -84 -55 -19 -16 -31 -21 -49 -18 -4 0 -7 -5 -7 -12 0 -13 205
-217 325 -322 38 -33 78 -69 91 -80 34 -31 63 -55 149 -125 44 -36 82 -68 83
-72 2 -5 10 -8 17 -8 7 0 15 -3 17 -8 4 -10 118 -97 203 -157 39 -26 72 -51
75 -54 10 -12 150 -101 159 -101 5 0 11 -4 13 -9 3 -10 189 -127 343 -216 148
-86 495 -258 530 -264 6 -1 19 -8 31 -16 12 -7 50 -26 85 -40 35 -15 82 -35
105 -46 47 -21 144 -60 159 -64 6 -1 24 -7 40 -14 55 -23 309 -111 335 -116 8
-2 16 -4 18 -5 1 -2 5 -3 10 -4 28 -7 52 -19 52 -27 0 -5 757 -9 1928 -9 1824
0 1929 1 1948 17 11 10 24 18 29 19 17 2 310 99 315 104 3 3 39 16 80 30 41
14 77 28 80 31 3 3 34 15 69 28 35 13 95 38 135 56 39 18 100 45 136 61 72 32
312 153 405 204 33 19 74 41 90 50 32 17 156 91 214 127 20 13 46 27 59 33 12
5 22 14 22 20 0 5 5 10 11 10 5 0 48 26 95 57 47 32 93 63 102 68 9 6 19 13
22 16 3 3 28 21 55 39 60 41 129 91 170 125 17 13 59 47 95 75 73 57 123 98
160 130 14 11 36 31 50 42 46 39 174 153 206 183 246 236 361 358 343 364 -8
2 -39 15 -69 29 -30 14 -71 29 -90 34 -19 5 -42 11 -50 13 -80 23 -133 35
-143 34 -6 -1 -19 0 -27 3 -8 3 -42 11 -75 18 -33 7 -68 17 -79 22 -14 7 -17
7 -11 -2 4 -7 -5 -4 -21 6 -15 11 -25 14 -21 7 4 -6 3 -14 -3 -18 -5 -3 -10 0
-10 8 0 8 -7 18 -16 21 -26 10 -29 7 -8 -10 18 -15 18 -15 -3 -4 -12 5 -25 14
-28 20 -3 5 -12 7 -19 4 -8 -3 -17 -1 -21 5 -3 6 -19 11 -35 11 -16 0 -31 4
-35 10 -3 5 -12 7 -20 3 -8 -3 -15 -1 -15 5 0 5 -13 8 -30 6 -16 -2 -30 0 -30
5 0 5 -13 8 -30 7 -16 -1 -30 0 -30 3 0 3 -28 6 -63 7 -34 0 -87 4 -117 8 -30
3 -72 8 -92 9 -20 1 -40 6 -44 10 -4 4 -14 1 -22 -6 -13 -9 -14 -9 -8 1 5 9
-6 12 -46 14 -49 1 -65 3 -78 8 -3 1 -12 3 -20 5 -8 2 -26 7 -40 11 -14 4 -37
7 -52 8 -16 0 -28 5 -28 9 0 4 -6 7 -12 6 -7 -1 -25 1 -39 5 -14 4 -32 8 -40
9 -8 2 -20 7 -28 11 -11 7 -12 6 -6 -5 7 -11 6 -12 -6 -2 -8 6 -30 14 -49 16
-19 3 -35 6 -35 7 0 1 -11 3 -25 5 -14 1 -45 8 -70 15 -25 7 -54 14 -65 16
-11 2 -29 5 -40 8 -11 2 -49 11 -85 20 -35 8 -66 13 -69 11 -2 -3 -9 0 -16 5
-7 5 -25 12 -41 14 -16 2 -36 6 -44 9 -26 10 -105 29 -106 26 0 -2 -8 2 -17
10 -10 7 -17 10 -17 6 0 -4 -7 -2 -15 5 -8 6 -19 9 -25 5 -5 -3 -10 -1 -10 6
0 7 -10 9 -25 7 -14 -3 -25 -1 -25 4 0 5 -4 6 -10 3 -5 -3 -10 -2 -10 3 0 5
-8 9 -17 9 -21 -2 -109 19 -171 39 -24 8 -48 12 -53 9 -5 -4 -9 -2 -9 3 0 5
-12 12 -27 15 -48 9 -67 15 -118 37 -90 39 -100 43 -107 42 -5 -1 -8 2 -8 6 0
8 -73 38 -77 31 -2 -2 -10 6 -18 19 -9 12 -20 20 -25 17 -5 -3 -14 0 -22 7 -7
7 -20 14 -28 16 -8 2 -16 8 -18 13 -2 5 -10 9 -17 9 -7 0 -25 7 -41 14 -15 8
-31 13 -36 10 -4 -3 -8 -1 -8 5 0 5 61 71 135 147 74 75 135 140 135 145 0 5
3 9 8 9 4 0 37 34 72 76 36 43 70 82 75 88 6 6 21 27 35 47 35 51 71 97 100
129 14 15 26 32 27 38 1 6 21 35 44 66 22 30 40 58 39 62 -1 4 5 11 14 16 9 5
16 16 16 23 0 8 9 24 20 35 11 11 20 27 20 36 0 9 5 12 13 8 6 -4 9 -3 4 1 -4
5 0 19 8 32 9 13 13 23 10 23 -4 0 1 7 9 16 9 8 16 22 16 30 0 8 5 14 11 14 5
0 8 4 4 10 -3 5 3 18 13 28 10 10 16 24 14 30 -2 7 1 12 8 12 6 0 8 5 5 10 -3
6 -2 10 4 10 6 0 8 6 5 14 -3 7 2 21 11 30 9 9 13 16 9 16 -3 0 0 8 7 17 12
14 12 16 0 8 -8 -5 -4 7 9 25 13 18 17 30 9 25 -10 -6 -9 -2 3 11 9 10 17 21
17 24 0 5 16 53 28 80 3 8 5 21 4 29 -1 7 2 10 8 6 10 -5 16 22 12 48 0 4 3 7
8 7 5 0 12 18 16 40 4 22 11 38 16 34 5 -3 9 0 9 5 0 6 -6 11 -12 11 -10 0
-10 2 0 9 7 4 15 17 17 27 2 10 4 20 5 22 2 1 3 6 4 11 0 5 4 13 9 17 4 4 7
18 7 31 0 13 5 23 12 23 6 0 9 3 5 6 -3 4 0 23 8 43 12 33 22 70 25 96 1 6 5
15 10 20 4 6 11 26 16 45 10 43 9 42 17 60 4 8 8 29 11 45 2 17 5 30 6 30 1 0
4 12 6 28 2 15 6 39 8 55 2 15 5 27 6 27 3 0 8 28 14 70 2 17 5 32 6 35 1 3 2
17 2 33 1 15 6 27 12 27 6 0 4 5 -4 10 -8 5 -10 10 -5 10 6 0 10 15 10 33 0
17 3 40 8 50 5 11 4 17 -5 17 -8 0 -9 3 -3 8 6 4 12 21 14 37 1 17 3 41 4 55
1 14 7 28 12 32 6 5 5 8 -4 8 -10 0 -11 3 -2 14 9 10 9 16 1 21 -7 4 -7 11 -2
18 5 7 8 23 8 37 -1 14 4 28 9 32 6 5 5 8 -3 8 -7 0 -11 4 -8 9 5 8 13 148 20
346 1 39 5 76 10 83 4 6 3 12 -3 12 -6 0 -8 7 -4 16 3 8 7 36 8 62 2 26 4 47
5 47 2 0 11 119 14 177 0 21 5 38 9 38 5 0 5 5 2 10 -3 6 -1 10 6 10 8 0 8 4
-1 15 -7 9 -10 18 -6 22 3 3 6 1 6 -5 0 -7 6 -11 13 -10 6 2 11 -3 9 -10 -1
-8 2 -11 8 -7 6 4 9 9 7 12 -3 2 1 16 8 30 8 15 12 30 9 35 -3 4 -1 8 5 8 5 0
8 9 6 20 -2 11 2 20 8 20 7 0 6 4 -3 10 -8 5 -10 10 -3 10 6 0 10 11 8 26 -2
19 1 24 13 19 11 -4 12 -2 5 7 -14 19 -9 44 7 40 10 -2 8 3 -5 19 -11 12 -14
19 -8 15 9 -5 12 1 9 23 -2 17 1 28 5 25 5 -3 9 -2 10 3 1 13 9 77 12 93 1 8
6 21 10 28 5 6 5 12 1 12 -4 0 1 10 12 22 13 15 14 18 3 10 -14 -10 -18 -10
-23 3 -3 10 -2 14 5 10 6 -4 10 -1 8 6 -4 30 2 37 25 35 17 -2 23 1 19 11 -4
10 -9 11 -18 3 -9 -7 -16 -5 -26 7 -9 11 -10 14 -1 9 7 -4 12 -2 12 4 0 7 7 9
15 6 18 -6 17 24 0 36 -6 4 -1 8 9 8 20 0 20 0 0 16 -10 8 -13 13 -6 9 6 -3
12 -1 12 5 0 6 3 9 8 7 4 -3 8 25 10 62 4 91 7 106 22 106 7 0 15 7 17 15 4
12 3 12 -5 2 -7 -11 -10 -9 -15 8 -4 15 -2 20 8 17 7 -3 17 -1 22 4 7 7 15 6
25 -3 7 -7 27 -24 43 -38 27 -23 26 -21 -5 17 -19 23 -40 42 -47 42 -7 1 -10
8 -7 16 4 8 1 15 -6 15 -6 0 -8 -5 -4 -12 4 -7 3 -8 -4 -4 -7 4 -12 2 -12 -3
0 -6 5 -11 11 -11 5 0 7 -5 3 -11 -11 -18 -28 7 -19 28 5 10 7 25 6 33 -1 12
0 12 7 2 7 -11 10 -11 15 2 4 9 1 16 -6 16 -8 0 -8 3 2 9 9 6 11 15 6 27 -8
18 -9 30 -6 54 1 7 7 7 20 0 20 -10 24 2 8 26 -4 7 -9 28 -12 48 -5 26 -3 36
7 36 9 0 9 3 -2 10 -13 8 -13 10 2 10 9 0 20 5 24 12 4 6 3 8 -3 5 -6 -4 -13
0 -17 8 -3 8 2 19 12 24 15 9 15 11 -3 33 -13 15 -14 18 -3 10 14 -11 16 -11
11 7 -3 12 -9 19 -13 16 -13 -8 -22 27 -10 39 5 5 10 17 10 25 0 11 -4 10 -16
-5 -14 -18 -15 -18 -4 4 13 26 14 27 35 6 12 -12 13 -19 4 -30 -6 -8 -15 -11
-20 -8 -5 3 -9 1 -9 -4 0 -5 9 -12 19 -15 14 -3 18 -1 14 9 -3 9 3 14 18 15
13 0 18 3 12 6 -7 2 -13 9 -13 14 0 12 32 8 43 -6 5 -6 7 -4 5 4 -2 8 -15 16
-29 18 -32 4 -69 24 -69 36 0 6 -8 20 -17 31 -17 20 -17 20 1 6 18 -14 19 -14
7 8 -8 15 -8 22 -1 22 7 0 8 6 1 19 -6 10 -9 20 -8 22 1 2 -3 -1 -9 -8 -15
-17 -29 -17 -16 0 7 7 10 27 9 43 -1 20 2 28 11 26 9 -2 11 2 6 10 -13 21 -13
38 -1 38 7 0 5 5 -3 10 -10 6 -11 10 -2 10 7 0 12 13 12 30 0 17 -5 30 -12 30
-9 0 -8 4 2 10 10 6 11 10 3 10 -7 0 -13 5 -13 10 0 14 16 12 32 -3 11 -12 16
-12 26 0 11 12 8 17 -9 15 -3 -1 -6 5 -6 13 0 8 4 12 9 9 4 -3 5 2 2 10 -3 9
-10 16 -14 16 -5 0 -7 9 -5 20 2 11 -1 20 -6 20 -6 0 -9 6 -6 13 2 6 0 21 -6
32 -10 19 -9 19 8 5 10 -8 16 -10 12 -4 -4 7 -1 14 7 17 8 3 13 14 11 24 -2
10 -4 18 -5 18 -1 0 -3 8 -5 18 -2 11 5 22 18 27 21 8 21 9 2 10 -12 0 -16 3
-9 8 6 4 10 19 9 34 -1 19 2 25 13 21 12 -5 11 -1 -2 19 -18 28 -18 45 2 67 7
7 11 19 9 26 -3 6 -1 18 4 26 8 11 9 9 7 -6 -2 -12 2 -19 10 -18 17 4 15 -15
-2 -19 -12 -3 -12 -5 0 -16 12 -11 14 -10 14 3 0 8 5 15 12 15 6 0 3 10 -8 22
-10 12 -14 18 -8 15 7 -4 14 2 17 13 3 11 1 18 -4 14 -5 -3 -9 0 -9 5 0 6 6
11 13 11 8 0 7 4 -3 10 -13 8 -13 10 -1 10 11 0 10 4 -5 16 -10 8 -13 12 -5 8
10 -5 11 -1 6 17 -7 22 -6 23 7 5 13 -16 14 -14 10 20 -2 22 -1 36 3 32 4 -4
16 -3 27 3 16 8 17 13 7 25 -6 8 -9 17 -6 21 4 3 9 -1 12 -9 4 -10 14 -14 26
-11 10 3 19 0 19 -6 0 -6 5 -11 11 -11 5 0 8 4 4 9 -3 5 -1 13 5 16 6 4 10 3
9 -2 -4 -24 4 -33 31 -33 31 0 39 -17 18 -38 -7 -7 -8 -12 -2 -12 5 0 15 5 21
11 8 8 13 7 18 -3 5 -7 4 -10 0 -5 -5 4 -17 0 -27 -10 -11 -10 -18 -12 -19 -5
-1 7 -3 17 -4 22 -1 6 -3 13 -4 18 -1 4 -8 -2 -16 -12 -8 -11 -16 -16 -16 -10
-1 5 -2 16 -3 24 -2 21 -29 19 -32 -3 -1 -11 0 -17 3 -14 2 3 16 -4 30 -16 13
-12 28 -22 31 -22 4 0 13 -4 21 -9 10 -6 12 -5 7 2 -4 7 -3 12 3 12 5 0 17 3
27 7 13 5 15 3 9 -8 -7 -11 -5 -11 10 1 14 11 19 12 22 2 3 -6 9 -10 13 -7 5
3 7 12 4 19 -3 8 -1 17 5 21 7 3 8 0 5 -9 -6 -16 10 -23 19 -8 2 4 3 2 1 -4
-1 -6 3 -17 9 -23 8 -8 8 -11 -1 -11 -6 0 -9 -7 -6 -15 4 -8 2 -15 -3 -15 -5
0 -10 -6 -10 -14 0 -11 4 -12 18 -3 9 6 14 17 11 25 -3 9 -1 13 4 9 6 -3 16
-1 24 5 13 8 12 9 -2 5 -24 -8 -31 30 -7 46 10 8 18 16 16 18 -1 2 3 -1 9 -8
6 -7 17 -13 24 -13 9 0 7 6 -5 20 -10 11 -15 23 -12 27 4 3 7 1 7 -7 0 -10 4
-10 18 1 15 13 16 12 4 -3 -9 -11 -10 -18 -2 -23 8 -5 8 -11 -1 -21 -17 -21
-3 -29 16 -10 9 9 22 16 28 16 7 0 4 5 -6 11 -17 10 -17 11 -1 23 10 8 15 20
11 30 -6 14 -4 15 16 5 22 -12 22 -12 3 9 -10 12 -22 20 -25 17 -4 -2 -8 6 -8
17 -2 20 -1 20 12 2 8 -11 15 -14 15 -9 0 6 4 4 8 -3 6 -8 9 3 10 28 1 23 4
46 8 51 3 5 -1 9 -9 9 -8 0 -18 7 -21 16 -9 24 -7 31 5 11 6 -9 15 -15 20 -11
6 3 5 12 -3 22 -11 13 -11 14 1 7 11 -6 13 -4 8 8 -4 10 -1 17 6 17 9 0 9 2
-1 8 -7 5 -14 18 -17 30 -2 11 -9 30 -15 42 -9 17 -9 25 0 34 8 8 10 7 5 -5
-3 -8 4 -26 15 -39 11 -13 18 -29 16 -36 -3 -7 4 -16 15 -19 10 -4 19 -14 19
-23 0 -13 -2 -14 -9 -4 -6 10 -10 8 -14 -9 -4 -15 -1 -26 8 -32 8 -4 15 -16
15 -26 0 -10 3 -21 7 -25 10 -10 14 -48 5 -42 -5 3 -9 -1 -9 -9 0 -12 4 -12
19 2 14 13 16 18 6 25 -7 4 -9 8 -4 8 5 0 3 7 -4 15 -10 12 -10 15 0 15 9 0 8
5 -3 18 -22 24 -21 33 1 26 10 -4 13 -2 7 3 -21 17 -32 133 -13 133 9 0 8 3
-2 10 -10 7 -11 10 -2 10 7 0 15 -7 19 -16 5 -13 9 -12 28 6 12 11 26 17 30
13 5 -5 3 0 -5 10 -11 15 -15 16 -20 5 -4 -11 -9 -10 -24 6 -15 14 -15 18 -4
13 9 -3 18 -3 21 0 8 7 -25 43 -39 43 -21 0 -35 25 -21 39 9 10 8 11 -5 6 -13
-5 -19 0 -24 19 -3 13 -3 30 1 36 3 6 3 9 -2 8 -4 -2 -8 2 -8 7 0 6 3 9 7 8 4
-2 5 4 1 13 -3 8 -12 13 -19 10 -8 -3 -14 -1 -14 5 0 6 -4 7 -10 4 -5 -3 -10
1 -10 9 0 20 -17 29 -26 15 -5 -8 -3 -9 6 -4 10 6 12 3 8 -13 -4 -14 -2 -20 4
-15 6 3 8 1 5 -4 -4 -6 1 -10 9 -9 9 0 18 -7 19 -16 2 -10 -1 -18 -6 -18 -5 0
-9 7 -9 15 0 9 -6 12 -15 9 -13 -5 -19 4 -17 27 0 3 -8 11 -20 18 -11 7 -17 8
-13 2 3 -6 2 -11 -4 -11 -22 0 -20 20 2 25 13 4 24 13 24 21 0 17 -14 19 -20
2 -4 -10 -6 -10 -6 -1 -1 7 -8 10 -18 7 -14 -5 -15 -4 -4 4 10 7 11 14 2 31
-7 11 -14 21 -17 21 -3 0 -2 -5 1 -11 4 -6 -2 -5 -13 2 -11 7 -20 20 -20 28 1
9 -1 23 -3 31 -3 9 3 14 13 14 10 -1 15 2 13 7 -3 4 4 17 16 28 12 11 18 24
15 29 -3 6 0 13 6 15 8 3 6 6 -4 6 -11 1 -20 12 -24 29 -3 15 -7 33 -10 40 -2
6 1 12 6 12 14 0 8 22 -10 38 -13 12 -13 13 2 8 10 -3 20 -1 23 4 4 6 -4 11
-17 11 -17 1 -18 3 -5 6 9 2 17 9 17 14 0 5 5 9 11 9 5 0 7 -4 4 -10 -3 -5 -1
-10 5 -10 6 0 8 -4 5 -10 -6 -10 40 -26 67 -22 9 2 19 -2 23 -8 3 -5 14 -10
23 -9 12 0 10 3 -6 10 -14 5 -20 13 -16 20 5 8 3 9 -6 4 -10 -6 -12 -3 -7 11
5 14 2 12 -12 -6 l-20 -25 5 25 c5 21 4 22 -6 8 -6 -10 -16 -18 -23 -18 -8 0
-7 3 2 9 11 7 9 14 -11 34 -13 13 -31 27 -39 31 -8 3 0 4 16 1 22 -4 26 -3 15
5 -13 9 -13 10 0 10 13 0 13 1 0 10 -10 6 -11 10 -2 10 6 0 12 5 12 11 0 5 -4
7 -10 4 -5 -3 -10 1 -10 9 0 9 5 16 12 16 6 0 8 3 5 6 -4 4 -13 1 -22 -6 -12
-10 -13 -16 -4 -26 7 -9 8 -14 1 -14 -18 0 -21 27 -5 51 9 12 11 19 5 15 -6
-4 -12 4 -14 21 -2 14 -10 29 -18 31 -13 5 -13 3 0 -14 14 -18 14 -18 -2 -5
-10 7 -16 17 -13 21 3 4 -2 10 -10 14 -8 3 -15 0 -15 -6 0 -15 -13 -1 -16 17
-3 18 23 20 29 3 2 -7 7 -10 11 -7 10 9 -4 37 -21 44 -9 3 -20 0 -25 -7 -7
-10 -8 -9 -5 2 2 8 13 14 25 13 11 -1 26 4 33 13 10 12 10 15 -2 12 -8 -2 -13
4 -12 15 0 10 -1 16 -4 13 -3 -3 -11 1 -18 7 -10 10 -9 14 9 24 11 7 16 12 10
13 -7 0 -22 -8 -35 -19 -23 -18 -23 -18 -2 -25 12 -4 24 -14 27 -23 5 -13 4
-14 -8 -4 -8 7 -16 8 -18 4 -3 -4 -4 -3 -2 3 1 6 -7 16 -17 22 -10 7 -19 18
-19 25 0 9 3 8 9 -2 6 -9 11 -10 15 -2 4 6 4 11 0 11 -4 0 1 7 12 16 18 15 18
15 -3 5 -28 -14 -34 -14 -30 2 1 6 -6 12 -15 12 -9 0 -20 3 -23 7 -9 8 38 3
53 -6 6 -3 14 -1 18 6 4 7 4 10 -1 6 -4 -4 -16 2 -26 14 -11 11 -19 16 -19 10
0 -17 -27 -15 -33 3 -4 8 -1 17 5 21 6 4 8 3 4 -4 -3 -6 -1 -14 5 -17 7 -5 10
0 7 11 -2 12 -11 18 -23 16 -17 -3 -17 -2 -4 14 10 13 10 16 1 10 -9 -5 -27 3
-52 23 -21 17 -42 31 -47 31 -4 0 0 -5 10 -11 9 -5 17 -15 17 -22 0 -8 -3 -7
-9 2 -5 7 -14 10 -20 7 -6 -4 -11 -4 -10 1 1 4 1 16 0 27 -1 16 -3 17 -18 5
-9 -8 -14 -9 -10 -3 9 16 -17 47 -41 49 -15 1 -19 -2 -13 -9 6 -7 1 -11 -15
-12 -14 -1 -24 4 -24 11 0 8 -4 16 -9 19 -4 3 -7 -5 -6 -18 2 -14 -2 -23 -11
-23 -9 0 -11 4 -4 12 8 9 4 12 -15 10 -14 -2 -23 1 -19 6 3 5 10 6 16 3 7 -4
8 -2 4 4 -5 9 -13 9 -26 2 -13 -7 -21 -7 -26 2 -4 7 -3 8 4 4 7 -4 12 -2 12 5
0 8 -13 10 -40 6 -38 -5 -57 3 -43 17 4 3 7 15 8 25 1 16 -5 18 -42 16 -24 -1
-43 2 -43 8 0 5 7 7 15 4 8 -4 17 -2 20 3 4 6 -3 10 -14 10 -10 0 -21 5 -23
10 -2 6 -20 12 -40 13 -31 2 -45 12 -16 12 13 0 20 33 8 40 -5 3 -12 0 -16 -6
-5 -8 -3 -9 6 -4 9 6 11 4 5 -5 -6 -10 -11 -10 -20 4 -12 15 -13 15 -19 0 -4
-10 -13 -14 -25 -11 -15 3 -18 1 -14 -12 4 -13 3 -13 -7 2 -6 9 -18 17 -25 17
-8 0 -15 6 -15 13 0 8 -4 7 -10 -3 -5 -8 -10 -10 -10 -4 0 7 -11 15 -25 18
-16 4 -22 11 -19 21 4 8 1 15 -6 15 -7 0 -10 7 -6 15 4 12 2 13 -14 2 -23 -14
-27 -29 -5 -21 8 4 15 1 15 -6 0 -8 -10 -11 -29 -7 -15 3 -33 1 -38 -4 -8 -8
-13 -7 -18 2 -5 8 -4 10 3 5 7 -4 12 -2 12 3 0 6 -7 11 -15 11 -8 0 -15 -4
-15 -10 0 -14 -43 -12 -59 3 -11 10 -13 10 -7 0 5 -9 0 -13 -16 -12 -13 0 -17
3 -10 6 6 2 12 17 13 31 0 24 1 25 9 7 5 -11 9 -15 9 -9 1 6 12 9 26 6 15 -2
22 -9 18 -16 -4 -7 -1 -6 9 1 8 7 18 10 21 6 4 -3 7 6 7 20 0 15 -5 27 -11 27
-6 0 -9 -7 -6 -14 4 -10 1 -13 -8 -9 -8 3 -12 10 -8 17 4 6 -2 4 -12 -4 -10
-8 -16 -10 -12 -4 4 7 0 17 -8 24 -8 7 -15 9 -15 4 0 -5 -7 0 -15 10 -11 14
-15 16 -15 5 0 -12 -2 -12 -10 1 -6 10 -10 11 -10 3 0 -7 -5 -13 -11 -13 -5 0
-7 5 -4 10 3 6 1 10 -4 10 -6 0 -11 -4 -11 -10 0 -5 -5 -10 -11 -10 -5 0 -8 4
-4 9 3 6 -4 8 -17 5 -13 -3 -28 -6 -35 -6 -7 -1 -9 -6 -6 -11 4 -6 0 -8 -9 -4
-9 3 -21 0 -27 -6 -8 -8 -11 -7 -11 4 0 11 -2 11 -9 1 -6 -10 -10 -10 -21 3
-10 12 -10 15 4 15 10 0 14 5 11 10 -3 6 0 10 7 11 29 1 50 8 64 20 9 7 25 13
36 14 11 1 24 8 29 16 4 8 24 14 43 15 22 1 33 -3 29 -9 -4 -6 -1 -7 8 -1 8 4
20 9 28 11 7 1 19 7 25 14 8 9 6 9 -10 0 -18 -9 -26 -6 -48 16 -21 21 -25 23
-21 7 6 -18 6 -18 -8 -1 -16 20 -32 23 -21 5 4 -7 -3 -4 -15 6 -22 20 -22 20
-15 0 4 -10 3 -16 -1 -11 -17 15 -11 53 12 75 13 12 21 22 18 22 -3 0 3 10 15
22 13 14 16 24 9 29 -7 4 -4 9 8 13 17 7 17 9 -4 26 -12 9 -20 20 -17 23 3 3
-3 3 -15 0 -20 -5 -26 5 -22 30 1 5 -3 6 -9 2 -5 -3 -10 1 -10 10 0 9 -5 13
-10 10 -6 -4 1 -20 16 -41 15 -19 31 -31 38 -27 6 4 5 -1 -3 -10 -7 -9 -23
-17 -35 -16 -19 1 -18 2 4 9 24 8 24 11 -2 14 -7 1 -12 9 -10 19 2 10 -3 17
-13 17 -9 0 -13 -5 -10 -11 4 -6 -2 -5 -14 3 -22 13 -28 28 -12 28 5 0 12 -6
14 -12 4 -8 6 -9 6 -2 1 6 -6 17 -14 24 -11 9 -15 9 -15 1 0 -7 -5 -9 -12 -5
-8 5 -9 2 -5 -9 3 -10 2 -17 -3 -17 -9 0 -14 15 -11 33 1 5 -3 5 -9 2 -6 -4
-9 -13 -6 -21 5 -14 -5 -18 -33 -15 -8 2 -10 -2 -5 -10 4 -8 3 -10 -4 -5 -6 4
-9 13 -5 22 4 10 9 11 17 5 8 -7 12 -4 13 12 1 12 -1 17 -5 12 -4 -6 -14 -10
-22 -10 -8 0 -18 -4 -22 -10 -4 -5 -8 -1 -8 10 0 17 -2 17 -10 5 -8 -13 -10
-12 -10 3 0 11 -4 15 -12 11 -6 -4 -8 -3 -4 4 3 6 0 17 -8 25 -8 8 -13 17 -10
20 9 9 -20 47 -35 47 -8 0 -11 3 -8 6 4 4 -9 19 -28 34 -26 21 -31 29 -20 33
14 6 30 -8 30 -27 0 -5 7 -11 15 -13 13 -4 13 -3 0 6 -8 6 -12 11 -7 11 4 0 1
13 -7 29 -9 16 -14 30 -13 32 2 2 -8 15 -20 29 -16 16 -22 18 -17 7 3 -10 1
-17 -5 -17 -6 0 -11 5 -11 11 0 5 -6 7 -12 3 -10 -6 -10 -4 -2 7 6 8 11 28 10
44 -1 25 -5 29 -23 27 -13 -2 -23 2 -23 7 0 6 3 10 8 10 21 -4 20 4 -5 27 -24
22 -28 24 -31 9 -2 -9 1 -22 7 -28 6 -6 11 -23 11 -38 0 -30 24 -57 35 -39 3
5 1 10 -4 10 -6 0 -11 8 -11 18 1 16 2 16 15 -2 11 -14 11 -22 2 -37 -8 -13
-13 -15 -19 -6 -4 7 -8 8 -8 3 0 -5 -6 -3 -13 3 -8 6 -18 7 -23 3 -4 -4 -3 0
2 8 13 18 14 50 2 50 -4 0 -8 7 -8 16 0 8 -4 13 -9 10 -5 -3 -7 8 -6 24 2 25
0 28 -11 19 -10 -8 -14 -8 -14 0 0 6 -4 11 -10 11 -5 0 -7 -6 -4 -14 3 -7 -2
-16 -11 -20 -10 -3 -13 -11 -9 -18 4 -7 4 -10 -1 -6 -4 4 -15 0 -23 -10 -9
-11 -8 -7 2 11 9 15 14 32 11 37 -4 6 1 7 11 3 12 -4 15 -3 10 6 -4 6 -2 19 6
28 10 13 10 17 0 20 -6 3 -9 10 -5 16 4 7 -1 6 -11 -2 -13 -11 -14 -16 -4 -22
9 -6 9 -9 1 -9 -6 0 -14 4 -17 9 -4 5 -14 8 -24 6 -9 -1 -23 3 -31 9 -11 8
-13 8 -8 0 4 -7 0 -15 -9 -18 -22 -9 -24 -8 -25 12 0 14 -2 14 -9 -3 -6 -13
-9 -15 -9 -5 -1 13 -2 13 -11 0 -6 -9 -10 -10 -10 -3 0 7 -11 10 -27 9 -16 -2
-27 -6 -25 -10 1 -3 2 -11 2 -18 0 -6 10 -3 23 8 l22 19 -19 -22 c-11 -13 -25
-23 -33 -23 -8 0 -22 -7 -30 -16 -13 -13 -17 -13 -24 -2 -7 11 -9 11 -9 0 0
-7 -4 -11 -9 -7 -5 3 -12 1 -16 -5 -4 -6 -11 -8 -16 -4 -14 8 9 34 26 28 7 -3
16 -1 20 5 3 6 -1 11 -9 11 -9 0 -16 4 -16 9 0 17 33 5 41 -15 7 -17 8 -16 9
6 1 14 4 19 7 12 2 -6 9 -10 13 -7 5 3 7 12 4 20 -4 8 -10 12 -16 9 -5 -3 -18
2 -29 12 -19 17 -20 17 -13 -2 7 -18 7 -18 -16 1 -13 11 -20 14 -16 8 4 -7 2
-13 -3 -13 -6 0 -11 5 -11 11 0 5 -5 7 -10 4 -6 -4 -8 -10 -5 -15 3 -5 -4 -7
-17 -5 -12 3 -26 -1 -30 -8 -6 -9 -8 -9 -8 0 0 16 -27 6 -52 -19 -10 -10 -25
-18 -33 -18 -8 0 -15 -6 -15 -14 0 -8 -5 -18 -12 -22 -7 -4 -8 -3 -4 4 4 7 2
12 -4 12 -6 0 -9 4 -5 9 3 5 1 13 -5 16 -6 4 -10 3 -9 -2 3 -20 -2 -34 -11
-28 -6 4 -8 10 -5 14 2 5 -6 7 -19 6 -20 -3 -24 1 -22 20 2 17 -1 21 -15 18
-11 -3 -17 -8 -15 -12 3 -4 -4 -8 -15 -8 -10 -1 -19 3 -19 8 0 6 4 8 8 5 5 -3
9 1 9 9 0 10 -4 12 -12 5 -7 -5 -16 -6 -20 -2 -5 4 -5 -1 -2 -10 3 -10 1 -20
-5 -24 -6 -4 -8 -3 -5 3 4 6 0 13 -8 17 -8 3 -12 12 -9 21 3 8 1 15 -6 15 -6
0 -8 5 -5 11 5 6 11 4 19 -7 9 -12 15 -14 20 -5 4 6 11 9 16 6 5 -3 11 -1 15
4 3 6 -4 8 -15 6 -13 -3 -20 0 -17 8 2 6 15 11 29 12 15 0 29 3 32 8 3 4 3 5
-1 2 -3 -3 -12 0 -20 6 -10 9 -13 8 -13 -1 0 -8 -3 -10 -7 -7 -3 4 -13 1 -22
-7 -9 -8 -20 -15 -26 -17 -18 -3 -58 -39 -44 -39 8 0 3 -6 -11 -14 -14 -7 -42
-23 -62 -35 -36 -22 -36 -22 -31 -2 3 12 10 21 16 21 6 0 8 3 4 6 -9 10 75
104 93 104 6 0 8 4 5 10 -4 6 6 8 24 6 19 -2 28 1 24 7 -4 6 0 8 11 4 10 -4
15 -3 11 3 -3 6 -2 10 3 10 5 0 12 8 14 18 3 11 0 19 -7 19 -7 0 -11 -7 -8
-14 4 -10 -1 -13 -21 -9 -14 2 -25 2 -25 -2 3 -20 -2 -25 -11 -12 -7 11 -10
11 -10 2 0 -7 -4 -11 -9 -7 -5 3 -17 -2 -25 -11 -12 -11 -16 -12 -16 -2 0 8
-3 9 -8 3 -4 -5 -18 -16 -31 -23 -19 -11 -22 -11 -16 0 4 7 -3 2 -15 -12 -12
-14 -19 -19 -15 -12 3 6 2 12 -4 12 -5 0 -12 -6 -14 -12 -4 -10 -6 -10 -6 0
-1 7 -5 11 -11 7 -5 -3 -8 -11 -6 -18 1 -7 1 -9 -1 -4 -9 14 -39 7 -53 -14
-27 -38 -58 -68 -64 -62 -3 4 -6 1 -6 -6 0 -7 -4 -9 -10 -6 -6 4 -7 -1 -3 -12
5 -15 3 -16 -8 -5 -16 15 -29 16 -29 1 0 -5 5 -7 10 -4 6 3 10 2 10 -3 0 -6
-7 -13 -16 -16 -8 -3 -13 -2 -10 3 3 5 -1 14 -8 20 -12 10 -13 8 -9 -8 3 -13
1 -21 -6 -21 -7 0 -9 5 -6 10 3 6 1 10 -5 10 -6 0 -8 4 -5 10 3 5 0 7 -9 4 -8
-3 -12 -12 -9 -21 5 -13 3 -13 -15 -2 -11 7 -18 18 -14 24 3 5 -1 4 -10 -3
-13 -10 -17 -10 -21 0 -4 10 -6 10 -6 1 -1 -7 -8 -13 -16 -13 -8 0 -15 6 -15
13 0 7 -3 8 -8 2 -9 -13 -46 -19 -38 -6 4 5 2 13 -4 16 -6 4 -10 3 -9 -2 3
-20 -2 -34 -11 -28 -6 4 -8 11 -5 16 11 16 -7 10 -21 -8 -13 -17 -14 -17 -7 1
5 15 3 17 -8 11 -12 -8 -12 -6 0 8 18 22 3 22 -23 0 -17 -15 -19 -15 -8 -1 10
12 10 18 1 24 -8 4 -9 3 -5 -4 4 -7 2 -12 -3 -12 -6 0 -11 5 -11 10 0 6 -9 1
-20 -10 -11 -11 -25 -20 -30 -20 -6 0 -9 -5 -8 -11 2 -6 -3 -13 -10 -14 -7 -2
-8 -1 -2 2 6 3 4 11 -5 20 -8 8 -13 19 -10 24 4 5 1 9 -4 9 -6 0 -11 7 -11 16
0 8 -4 12 -10 9 -5 -3 -10 0 -10 8 0 8 -6 19 -12 24 -16 12 -64 0 -61 -15 2
-6 -6 -9 -17 -7 -11 2 -23 -1 -26 -7 -4 -7 -2 -8 4 -4 7 4 12 1 12 -8 0 -15
-27 -22 -72 -18 -10 1 -17 -3 -15 -9 1 -6 -4 -13 -11 -14 -7 -2 -8 -1 -2 2 5
2 8 9 5 14 -3 5 -1 18 5 29 8 15 8 20 -2 20 -10 0 -10 2 0 9 11 7 11 9 -2 14
-9 4 -15 3 -15 -1 3 -18 -2 -32 -18 -48 -17 -17 -17 -18 2 -11 19 7 19 6 1 -7
-10 -9 -15 -20 -10 -27 4 -8 3 -10 -4 -5 -7 4 -12 4 -12 -1 0 -4 -11 -8 -25
-8 -14 0 -25 3 -25 6 0 4 -15 5 -32 3 -23 -3 -29 -1 -18 5 8 6 18 7 24 4 5 -3
6 -1 2 5 -4 6 -13 9 -21 5 -8 -3 -15 -1 -15 5 0 8 -17 9 -53 3 -5 0 -6 -5 -2
-10 3 -5 1 -13 -5 -16 -6 -4 -10 -3 -9 2 4 22 -2 25 -17 7 -14 -18 -15 -18 -9
6 5 19 4 22 -4 10 -9 -13 -12 -13 -20 -1 -7 11 -12 10 -22 -8 -8 -11 -20 -21
-27 -21 -8 0 -10 -5 -6 -12 5 -8 0 -7 -11 2 -15 12 -17 12 -10 1 6 -11 4 -13
-8 -8 -9 3 -17 1 -19 -4 -2 -6 -18 -12 -35 -13 -19 -1 -30 2 -27 8 3 6 -2 2
-12 -9 -14 -17 -16 -17 -11 -2 5 12 1 17 -13 17 -13 0 -20 7 -20 20 0 13 -7
20 -20 20 -11 0 -20 5 -20 11 0 5 -4 7 -10 4 -5 -3 -10 1 -10 10 0 10 -5 13
-12 9 -7 -5 -9 -2 -5 9 4 11 2 14 -9 10 -9 -3 -14 1 -14 13 0 16 -2 17 -10 4
-6 -10 -10 -11 -10 -2 0 6 -7 12 -15 12 -9 0 -18 7 -22 16 -3 8 -12 13 -20 10
-8 -3 -11 -1 -8 4 3 6 -1 10 -10 10 -9 0 -13 5 -10 10 3 6 -1 10 -9 10 -8 0
-18 5 -22 12 -5 7 -3 8 6 3 9 -5 11 -4 6 4 -6 9 -11 9 -22 0 -10 -8 -14 -8
-12 -1 2 6 -6 18 -17 27 -11 9 -14 13 -6 9 9 -5 12 -3 7 4 -4 7 -25 15 -47 18
-21 4 -39 10 -39 14 0 4 -7 11 -16 14 -10 4 -13 2 -8 -7 6 -9 5 -9 -8 0 -8 7
-18 10 -21 6 -4 -3 -7 -1 -7 5 0 7 -9 12 -20 12 -12 0 -31 6 -43 14 -12 7 -32
13 -44 11 -13 -1 -23 3 -23 8 0 5 -7 7 -15 3 -8 -3 -15 -1 -15 5 0 6 -4 7 -10
4 -5 -3 -10 -2 -10 4 0 5 -9 8 -20 6 -11 -2 -18 0 -15 4 2 5 -4 11 -15 14 -13
3 -18 1 -13 -6 4 -7 -1 -6 -10 2 -9 7 -24 11 -32 7 -10 -3 -15 1 -15 12 0 15
-2 15 -10 2 -9 -13 -10 -13 -10 0 0 13 -1 13 -10 0 -6 -10 -10 -11 -10 -2 0
14 -21 12 -32 -3 -4 -5 -8 -1 -8 10 0 11 -4 16 -8 10 -8 -11 -53 -15 -47 -4 3
3 -8 6 -23 6 -15 0 -56 3 -91 7 -51 6 -62 5 -56 -6 3 -7 0 -5 -8 5 -16 20 -32
23 -21 5 5 -10 4 -10 -6 -1 -7 6 -19 9 -26 6 -8 -3 -14 1 -14 8 0 9 -4 7 -11
-4 -10 -18 -11 -18 -32 0 -11 10 -17 13 -14 7z m-139 -320 c3 -8 2 -12 -3 -9
-5 3 -12 1 -15 -4 -4 -5 -2 -12 4 -16 13 -8 13 -25 0 -25 -5 0 -10 7 -10 16 0
8 -4 12 -10 9 -5 -3 -10 -1 -10 4 0 6 5 11 11 11 5 0 8 4 5 9 -4 5 0 12 6 14
7 3 14 6 14 6 1 1 5 -6 8 -15z m2811 -52 c-3 -3 -13 -7 -23 -8 -9 -1 -26 -5
-37 -9 l-20 -7 20 16 c11 8 25 19 30 24 11 10 40 -6 30 -16z m664 15 c-2 -1
-15 -11 -28 -22 l-24 -20 12 23 c6 12 19 22 28 22 9 0 14 -1 12 -3z m-99 -12
c0 -2 -10 -9 -22 -15 -22 -11 -22 -10 -4 4 21 17 26 19 26 11z m-1264 -67 c-5
-9 -12 -15 -15 -13 -2 3 2 11 9 20 15 18 -1 20 -19 3 -10 -11 -12 -10 -9 2 2
8 10 20 18 27 12 9 16 8 21 -5 3 -9 1 -25 -5 -34z m1010 37 c-8 -9 -13 -23
-10 -33 5 -13 4 -14 -4 -3 -5 7 -16 17 -23 22 -10 6 -7 10 11 18 36 14 43 13
26 -4z m-1602 -3 c3 -5 -1 -9 -9 -9 -8 0 -15 4 -15 9 0 4 4 8 9 8 6 0 12 -4
15 -8z m1566 -32 c0 -5 -7 -7 -15 -4 -8 4 -15 8 -15 10 0 2 7 4 15 4 8 0 15
-4 15 -10z m604 -142 c-5 -8 -1 -9 10 -5 11 4 15 3 11 -4 -10 -14 -28 -6 -31
14 -1 9 2 15 7 11 5 -3 6 -10 3 -16z m277 -262 c5 3 9 0 9 -6 0 -7 -7 -10 -15
-6 -8 3 -15 0 -15 -6 0 -6 -2 -9 -5 -6 -3 3 -2 13 2 24 4 11 8 13 11 6 2 -7 8
-10 13 -6z m40 -13 c13 -16 12 -17 -3 -4 -17 13 -22 21 -14 21 2 0 10 -8 17
-17z m104 -13 c3 -5 1 -10 -4 -10 -6 0 -11 5 -11 10 0 6 2 10 4 10 3 0 8 -4
11 -10z m-45 -50 c8 -5 11 -10 5 -10 -5 0 -17 5 -25 10 -8 5 -10 10 -5 10 6 0
17 -5 25 -10z m50 -154 c-7 -7 -14 -6 -21 1 -9 9 -7 12 9 10 14 -1 18 -5 12
-11z m-93 -110 c0 -8 -6 -12 -15 -9 -11 5 -11 7 0 14 7 5 13 9 14 9 0 0 1 -6
1 -14z m28 -46 c-4 -6 7 -10 24 -10 17 0 31 -5 31 -11 0 -5 -4 -8 -9 -4 -5 3
-17 -2 -25 -11 -15 -14 -16 -14 -17 3 0 16 -1 16 -9 -2 -5 -11 -9 -15 -9 -9
-1 6 -9 11 -18 11 -10 0 -29 1 -43 2 -23 1 -23 3 -7 12 11 6 32 9 48 5 16 -3
28 -2 28 2 -2 12 1 22 7 22 3 0 2 -4 -1 -10z m495 -160 c0 -5 -2 -10 -4 -10
-3 0 -8 5 -11 10 -3 6 -1 10 4 10 6 0 11 -4 11 -10z m83 -34 c7 -19 -13 -26
-36 -14 -9 5 -22 6 -27 3 -6 -3 -10 -1 -10 4 0 14 16 14 41 1 11 -7 19 -7 19
-1 0 5 -6 12 -12 14 -8 4 -7 6 3 6 9 1 19 -5 22 -13z m242 -75 c3 -5 1 -12 -5
-16 -5 -3 -10 1 -10 9 0 18 6 21 15 7z m145 -146 c14 -19 14 -19 -2 -6 -10 7
-18 18 -18 24 0 6 1 8 3 6 1 -2 9 -13 17 -24z m77 -172 c0 -9 -4 -10 -14 -2
-7 6 -13 12 -13 14 0 1 6 2 13 2 8 0 14 -6 14 -14z m13 -33 c0 -5 -2 -10 -4
-10 -3 0 -8 5 -11 10 -3 6 -1 10 4 10 6 0 11 -4 11 -10z m77 -220 c3 -10 2
-11 -4 -4 -4 6 -15 14 -23 17 -11 5 -9 6 4 4 11 -1 21 -9 23 -17z m-10 -123
c-3 -7 1 -21 9 -31 7 -11 11 -23 8 -27 -3 -5 1 -9 8 -9 8 0 7 -6 -5 -17 -14
-14 -19 -15 -29 -4 -11 12 -10 13 5 7 13 -4 17 -2 14 6 -2 7 -9 12 -15 11 -9
-2 -10 12 -3 70 1 4 4 7 7 7 3 0 4 -6 1 -13z m153 -377 c0 -5 -5 -10 -11 -10
-5 0 -7 5 -4 10 3 6 8 10 11 10 2 0 4 -4 4 -10z m-30 -51 c0 -5 4 -8 8 -5 4 2
9 -10 9 -27 1 -18 -1 -26 -3 -20 -3 7 -5 15 -4 18 0 3 -9 15 -22 25 -20 16
-20 19 -5 20 9 0 17 -5 17 -11z m68 -70 c8 -12 9 -18 3 -14 -6 3 -11 -1 -11
-9 0 -10 6 -13 17 -9 12 5 14 3 7 -8 -5 -8 -9 -17 -10 -21 -1 -5 -3 -10 -4
-13 -7 -13 -5 -31 5 -37 6 -5 6 -11 -3 -20 -13 -13 -13 -14 -16 53 0 21 -10
46 -21 59 -11 12 -15 21 -10 20 22 -5 27 1 15 15 -11 13 -10 14 1 10 8 -3 20
-15 27 -26z m56 -45 c3 -8 2 -12 -4 -9 -6 3 -10 10 -10 16 0 14 7 11 14 -7z
m-7231 -94 c6 -24 -4 -32 -23 -19 -10 6 -11 9 -2 9 6 0 12 7 12 16 0 9 -5 12
-12 8 -7 -4 -8 -3 -4 5 10 15 22 7 29 -19z m7192 -50 c-3 -5 -12 -10 -18 -10
-7 0 -6 4 3 10 19 12 23 12 15 0z m-108 -34 c-8 -19 17 -53 27 -37 4 6 0 14
-8 17 -9 3 -13 10 -10 15 6 10 34 -14 34 -29 0 -17 -31 -22 -46 -8 -17 17 -19
56 -3 56 6 0 9 -6 6 -14z m-311 -28 c-15 -49 -17 -52 -25 -39 -6 8 -3 21 7 32
19 22 23 24 18 7z m354 -42 c0 -3 -4 -8 -10 -11 -5 -3 -10 -1 -10 4 0 6 5 11
10 11 6 0 10 -2 10 -4z m-380 -26 c0 -5 -2 -10 -4 -10 -3 0 -8 5 -11 10 -3 6
-1 10 4 10 6 0 11 -4 11 -10z m77 -20 c-1 -20 -8 -25 -20 -14 -3 3 0 12 6 20
16 17 16 17 14 -6z m134 -33 c-10 -9 -11 -8 -5 6 3 10 9 15 12 12 3 -3 0 -11
-7 -18z m-6894 -4 c-4 -3 -1 -13 6 -22 11 -14 10 -14 -5 -2 -21 15 -23 31 -6
31 6 0 8 -3 5 -7z m6837 -1 c2 -4 -7 -9 -20 -10 -15 -1 -22 2 -19 8 7 12 32
13 39 2z m-124 -12 c0 -5 -2 -10 -4 -10 -3 0 -8 5 -11 10 -3 6 -1 10 4 10 6 0
11 -4 11 -10z m-207 -417 c-3 -7 -6 -13 -8 -13 -2 0 -5 6 -8 13 -3 8 1 14 8
14 7 0 11 -6 8 -14z m-6413 -72 c0 -5 -10 -11 -22 -14 -22 -6 -22 -6 -4 8 23
17 26 18 26 6z m5 -482 c-4 -5 -12 -9 -18 -8 -9 0 -8 2 1 6 6 2 9 10 6 15 -4
7 -2 8 5 4 6 -4 9 -12 6 -17z m6380 -268 c3 -5 2 -12 -3 -15 -5 -3 -9 1 -9 9
0 17 3 19 12 6z m-5922 -2237 c-7 -19 -10 -18 -16 5 -3 13 -1 18 9 14 7 -2 10
-11 7 -19z m201 -820 c3 -8 2 -12 -4 -9 -6 3 -10 10 -10 16 0 14 7 11 14 -7z
m18 -46 c-6 -6 -7 0 -4 19 5 21 7 23 10 9 2 -10 0 -22 -6 -28z"/>
<path d="M7790 11396 c-7 -10 -4 -18 12 -32 14 -12 18 -13 10 -3 -17 22 -2 32
19 13 16 -14 17 -14 15 0 -4 31 -37 43 -56 22z"/>
<path d="M8315 11370 c3 -5 8 -10 11 -10 2 0 4 5 4 10 0 6 -5 10 -11 10 -5 0
-7 -4 -4 -10z"/>
<path d="M6958 11333 c7 -3 16 -2 19 1 4 3 -2 6 -13 5 -11 0 -14 -3 -6 -6z"/>
<path d="M4777 11317 c-3 -8 0 -14 7 -14 7 0 13 6 13 14 0 7 -4 13 -8 13 -4 0
-9 -6 -12 -13z"/>
<path d="M6917 11306 c-3 -8 -2 -18 3 -21 13 -8 20 9 11 24 -6 10 -10 9 -14
-3z"/>
<path d="M4771 11286 c2 -2 15 -9 29 -15 24 -11 24 -11 6 3 -16 13 -49 24 -35
12z"/>
<path d="M6266 11253 c-6 -14 -5 -15 5 -6 7 7 10 15 7 18 -3 3 -9 -2 -12 -12z"/>
<path d="M4476 11213 c-6 -14 -5 -15 5 -6 7 7 10 15 7 18 -3 3 -9 -2 -12 -12z"/>
<path d="M8950 10680 c0 -5 5 -10 11 -10 5 0 7 5 4 10 -3 6 -8 10 -11 10 -2 0
-4 -4 -4 -10z"/>
<path d="M9045 10560 c-3 -6 1 -7 9 -4 18 7 21 14 7 14 -6 0 -13 -4 -16 -10z"/>
<path d="M9000 10520 c0 -4 7 -7 15 -6 23 3 26 12 5 13 -11 1 -20 -2 -20 -7z"/>
<path d="M9100 10455 c0 -8 7 -15 15 -15 8 0 15 5 15 11 0 5 6 7 13 3 6 -4 9
-3 4 1 -14 16 -47 16 -47 0z"/>
<path d="M9195 10440 c3 -5 8 -10 11 -10 2 0 4 5 4 10 0 6 -5 10 -11 10 -5 0
-7 -4 -4 -10z"/>
<path d="M9224 10425 c0 -16 5 -21 18 -17 21 5 36 24 16 20 -7 -2 -12 2 -11 8
1 6 -4 11 -11 11 -6 0 -12 -10 -12 -22z"/>
<path d="M9267 10404 c-9 -10 2 -24 18 -24 9 0 12 6 9 15 -6 16 -17 19 -27 9z"/>
<path d="M9393 10355 c0 -8 4 -15 9 -15 4 0 8 7 8 15 0 8 -4 15 -8 15 -5 0 -9
-7 -9 -15z"/>
<path d="M9520 10240 c-9 -6 -10 -10 -3 -10 6 0 15 5 18 10 8 12 4 12 -15 0z"/>
<path d="M3190 10110 c-6 -11 -7 -20 -3 -20 4 -1 -3 -10 -16 -20 -13 -11 -19
-20 -13 -20 5 0 15 7 22 15 7 8 17 12 22 9 6 -4 5 -10 -3 -15 -8 -5 -9 -9 -3
-9 21 0 24 14 7 33 -17 19 -17 20 0 14 10 -4 16 -3 12 2 -3 5 0 11 7 13 8 3 6
7 -5 11 -11 4 -20 -1 -27 -13z"/>
<path d="M9860 10120 c8 -5 20 -10 25 -10 6 0 3 5 -5 10 -8 5 -19 10 -25 10
-5 0 -3 -5 5 -10z"/>
<path d="M3252 9998 c-5 -8 -6 -22 -1 -33 5 -14 8 -15 9 -5 1 8 3 23 5 33 4
20 1 21 -13 5z"/>
<path d="M3238 9933 c7 -3 16 -2 19 1 4 3 -2 6 -13 5 -11 0 -14 -3 -6 -6z"/>
<path d="M10070 9850 c0 -5 5 -10 11 -10 5 0 7 5 4 10 -3 6 -8 10 -11 10 -2 0
-4 -4 -4 -10z"/>
<path d="M10132 9733 c14 -15 17 -23 8 -23 -7 0 -10 -3 -7 -7 4 -3 1 -13 -6
-21 -9 -12 -6 -11 14 2 15 9 33 15 40 14 8 -2 13 3 12 10 -2 6 3 12 10 12 8 0
7 3 -3 9 -16 11 -33 4 -25 -10 4 -5 2 -9 -3 -9 -12 0 -43 35 -37 42 3 2 -2 5
-10 5 -12 0 -10 -6 7 -24z"/>
<path d="M10216 9713 c-6 -14 -5 -15 5 -6 7 7 10 15 7 18 -3 3 -9 -2 -12 -12z"/>
<path d="M10076 9478 c3 -5 10 -6 15 -3 13 9 11 12 -6 12 -8 0 -12 -4 -9 -9z"/>
<path d="M10040 9341 c4 -9 9 -20 10 -26 1 -5 4 -12 7 -15 4 -3 3 1 -2 9 -6
10 -2 12 16 7 l24 -7 -25 15 -24 14 24 4 c23 3 22 4 -7 9 -27 4 -30 3 -23 -10z"/>
<path d="M10246 9048 c3 -5 10 -6 15 -3 13 9 11 12 -6 12 -8 0 -12 -4 -9 -9z"/>
<path d="M10305 8920 c-14 -15 -21 -17 -32 -9 -11 9 -12 8 -7 -5 3 -9 10 -16
16 -16 5 0 6 -4 3 -10 -3 -5 2 -10 11 -10 14 0 15 -3 6 -12 -7 -7 -12 -17 -12
-22 0 -6 4 -5 9 3 15 24 20 -5 5 -33 -19 -38 -18 -43 14 -54 15 -6 20 -11 12
-12 -10 -1 -9 -4 5 -9 11 -5 25 -6 31 -4 12 4 6 63 -6 63 -5 0 -7 -12 -4 -27
3 -21 2 -24 -6 -13 -5 8 -10 23 -10 33 0 9 -5 17 -11 17 -5 0 -8 -4 -5 -9 3
-5 -1 -11 -9 -15 -8 -3 -15 -2 -15 3 0 14 28 33 40 26 6 -4 10 4 10 19 0 14
-6 26 -12 26 -9 0 -8 4 2 10 11 7 11 10 2 10 -7 0 -11 4 -8 9 3 5 -1 11 -9 15
-8 3 -15 11 -15 18 0 9 3 9 10 -2 7 -12 9 -10 7 8 -2 27 0 26 -22 2z"/>
<path d="M10226 8767 c3 -10 9 -15 12 -12 3 3 0 11 -7 18 -10 9 -11 8 -5 -6z"/>
<path d="M10290 8740 c0 -5 5 -10 11 -10 5 0 7 5 4 10 -3 6 -8 10 -11 10 -2 0
-4 -4 -4 -10z"/>
<path d="M3067 8713 c-4 -3 -7 -10 -7 -14 0 -11 29 -19 35 -10 6 11 -20 33
-28 24z"/>
<path d="M10338 8714 c6 -3 12 -14 12 -24 0 -10 5 -22 10 -25 7 -4 6 -14 -1
-28 -9 -18 -9 -20 1 -10 7 6 13 28 13 49 1 32 -2 38 -23 40 -14 1 -19 0 -12
-2z"/>
<path d="M10251 8644 c0 -11 3 -14 6 -6 3 7 2 16 -1 19 -3 4 -6 -2 -5 -13z"/>
<path d="M9787 8635 c-4 -8 -1 -17 5 -21 7 -4 8 -3 4 4 -4 7 -2 12 3 12 6 0
11 5 11 10 0 15 -17 12 -23 -5z"/>
<path d="M3075 8609 c-4 -6 -5 -12 -2 -15 2 -3 7 2 10 11 7 17 1 20 -8 4z"/>
<path d="M9745 8610 c-3 -6 1 -7 9 -4 18 7 21 14 7 14 -6 0 -13 -4 -16 -10z"/>
<path d="M10340 8595 c-7 -9 -11 -17 -9 -20 3 -2 10 5 17 15 14 24 10 26 -8 5z"/>
<path d="M10055 8570 c-8 -12 20 -24 35 -15 6 3 8 11 5 16 -8 12 -32 12 -40
-1z"/>
<path d="M10150 8560 c0 -5 -11 -12 -25 -16 -22 -5 -62 -61 -51 -71 9 -9 37
31 31 45 -4 12 -3 12 9 3 11 -10 18 -6 36 19 12 16 17 30 11 30 -6 0 -11 -4
-11 -10z"/>
<path d="M10299 8561 c12 -8 12 -12 2 -24 -9 -12 -9 -17 1 -23 7 -4 10 -4 6 1
-4 4 -3 14 3 21 12 15 4 34 -14 34 -8 0 -7 -4 2 -9z"/>
<path d="M10115 8489 c-4 -6 -5 -12 -2 -15 2 -3 7 2 10 11 7 17 1 20 -8 4z"/>
<path d="M9990 8450 c-9 -16 -8 -18 5 -14 8 3 13 10 10 14 -3 5 1 11 7 13 10
4 10 6 1 6 -7 1 -17 -8 -23 -19z"/>
<path d="M10051 8446 c-9 -11 -9 -16 1 -22 7 -4 10 -4 6 1 -4 4 -3 14 3 22 6
7 9 13 6 13 -2 0 -10 -6 -16 -14z"/>
<path d="M3093 8425 c0 -8 4 -12 9 -9 5 3 6 10 3 15 -9 13 -12 11 -12 -6z"/>
<path d="M9953 8403 c0 -9 4 -10 14 -2 7 6 13 12 13 14 0 1 -6 2 -13 2 -8 0
-14 -6 -14 -14z"/>
<path d="M10019 8403 c-13 -16 -12 -17 4 -4 9 7 17 15 17 17 0 8 -8 3 -21 -13z"/>
<path d="M9666 8394 c-8 -21 -9 -18 14 -44 11 -13 21 -19 21 -14 6 38 5 54 -1
54 -15 0 -19 -14 -7 -29 11 -14 10 -14 -6 -2 -12 10 -15 17 -7 25 12 12 13 26
1 26 -5 0 -12 -7 -15 -16z"/>
<path d="M9949 8333 c-13 -16 -12 -17 4 -4 9 7 17 15 17 17 0 8 -8 3 -21 -13z"/>
<path d="M9670 8295 c0 -8 2 -15 4 -15 2 0 6 7 10 15 3 8 1 15 -4 15 -6 0 -10
-7 -10 -15z"/>
<path d="M9905 8300 c-3 -6 1 -7 9 -4 18 7 21 14 7 14 -6 0 -13 -4 -16 -10z"/>
<path d="M9643 8235 c0 -8 4 -12 9 -9 5 3 6 10 3 15 -9 13 -12 11 -12 -6z"/>
<path d="M9737 7653 c-4 -3 -7 -11 -7 -17 0 -6 5 -5 12 2 6 6 9 14 7 17 -3 3
-9 2 -12 -2z"/>
<path d="M9687 7487 c-3 -7 3 -13 14 -13 13 0 15 3 7 13 -6 7 -12 13 -13 13
-2 0 -5 -6 -8 -13z"/>
<path d="M9750 7480 c0 -5 5 -10 11 -10 5 0 7 5 4 10 -3 6 -8 10 -11 10 -2 0
-4 -4 -4 -10z"/>
<path d="M9612 7298 c7 -13 11 -27 10 -31 -1 -5 2 -6 7 -2 6 3 7 13 4 22 -5
12 -3 14 7 8 9 -5 11 -4 6 4 -4 6 -12 9 -17 6 -5 -4 -9 -1 -9 4 0 6 -5 11 -10
11 -7 0 -6 -8 2 -22z"/>
<path d="M3717 4849 c7 -7 15 -10 18 -7 3 3 -2 9 -12 12 -14 6 -15 5 -6 -5z"/>
<path d="M3876 4198 c3 -4 9 -8 15 -8 5 0 9 4 9 8 0 5 -7 9 -15 9 -8 0 -12 -4
-9 -9z"/>
</g>
</svg>
